<svg width="33" height="32" viewBox="0 0 33 32" fill="none" xmlns="http://www.w3.org/2000/svg">
<g clip-path="url(#clip0_15721_3081)">
<path d="M18.1691 15.7922C17.7236 15.3461 17.1241 15.0962 16.4995 15.0962C15.875 15.0962 15.2754 15.3461 14.8299 15.7922C14.8299 15.7922 13.5191 17.1281 13.1455 17.4287L14.2925 32.0001H18.7164L19.8633 17.4387C19.6471 17.3185 18.1691 15.7922 18.1691 15.7922Z" fill="#FF7010"/>
<path d="M9.87511 15.642C9.45031 15.2183 8.8856 14.9714 8.29159 14.9498C7.69757 14.9282 7.11702 15.1333 6.66365 15.5251L4.36975 17.4889L6.57845 29.9496C6.67992 30.5224 6.97579 31.0407 7.41429 31.4137C7.85279 31.7868 8.40602 31.9908 8.97721 31.9902H12.9817L11.8413 17.5122C11.5824 17.4121 9.87511 15.642 9.87511 15.642Z" fill="#FF7010"/>
<path d="M15.9702 2.68013C16.1394 2.74855 16.3191 2.78586 16.5011 2.79034C16.7288 2.79599 16.9541 2.74105 17.1546 2.63095C17.3552 2.52085 17.5241 2.35938 17.6448 2.16247C17.7947 1.93544 17.8745 1.66795 17.8742 1.39432C17.8734 1.18167 17.8251 0.971984 17.7329 0.781202C17.6408 0.590421 17.5071 0.423559 17.3422 0.293291C17.1773 0.163024 16.9854 0.0727779 16.7811 0.0294094C16.5769 -0.013959 16.3656 -0.0093095 16.1633 0.0430051C15.9611 0.0953198 15.7732 0.193924 15.6139 0.331325C15.4547 0.468727 15.3283 0.641312 15.2443 0.835971C15.1602 1.03063 15.1209 1.24224 15.1291 1.45473C15.1374 1.66722 15.193 1.87499 15.2919 2.06227C15.4455 2.33837 15.6838 2.55543 15.9702 2.68013Z" fill="#FF7010"/>
<path d="M24.4085 8.51155L24.0349 8.42137L23.9432 8.04064C23.3566 5.7028 21.2691 3.80247 18.5656 3.15455C18.3205 3.47119 18.0054 3.72429 17.6461 3.8932C17.2867 4.0621 16.8933 4.14201 16.4978 4.12642C15.4 4.12642 14.4923 3.20799 14.4399 3.14453C11.7396 3.79245 9.65219 5.67274 9.06889 8.02394L8.98041 8.42137L8.60356 8.52157C7.02549 8.94102 5.66492 9.96041 4.80134 11.3704C3.93775 12.7803 3.63671 14.4737 3.96005 16.1029L5.81811 14.5098C6.52019 13.9041 7.41865 13.5869 8.33793 13.6202C9.25721 13.6536 10.1313 14.0351 10.7893 14.6901L12.4278 16.3066L13.9287 14.8271C14.2652 14.4835 14.666 14.2125 15.1074 14.03C15.5488 13.8476 16.0216 13.7575 16.4978 13.765C17.4652 13.7713 18.3923 14.1605 19.0834 14.8504L20.5515 16.3133L22.226 14.6734C22.8848 14.0249 23.7565 13.6488 24.6719 13.6179C25.5873 13.587 26.4814 13.9037 27.1808 14.5064L29.0356 16.1029C29.3649 14.4743 29.0685 12.7791 28.2076 11.3667C27.3467 9.95432 25.9869 8.93237 24.4085 8.51155Z" fill="#FF7010"/>
<path d="M23.1338 15.6216C23.1338 15.6216 21.3708 17.405 21.1676 17.4852L20.0239 31.9898H24.035C24.6062 31.9904 25.1594 31.7864 25.5979 31.4134C26.0364 31.0403 26.3323 30.5221 26.4337 29.9492L27.5315 23.7573L28.6228 17.4885L26.3289 15.5147C25.8774 15.1271 25.3012 14.9235 24.7112 14.9432C24.1212 14.9629 23.5593 15.2046 23.1338 15.6216Z" fill="#FF7010"/>
</g>
<defs>
<clipPath id="clip0_15721_3081">
<rect width="32" height="32" fill="white" transform="translate(0.5)"/>
</clipPath>
</defs>
</svg>
