<svg width="33" height="32" viewBox="0 0 33 32" fill="none" xmlns="http://www.w3.org/2000/svg">
<path d="M9.56502 0C9.26956 0 9.04902 0.238377 9.03169 0.533342V8.62814C9.56793 8.82165 9.9838 9.29421 10.0775 9.87918C10.0813 9.89954 10.2941 11.0933 11.165 12.35V0.533342C11.165 0.237873 10.9272 0 10.6317 0H9.56502ZM22.365 0C22.0696 0 21.849 0.238377 21.8317 0.533342V12.3448C22.708 11.078 22.9223 9.86873 22.9223 9.86873C23.0193 9.28922 23.4326 8.82078 23.965 8.62814V0.533342C23.965 0.237873 23.7272 0 23.4317 0H22.365ZM12.765 2.13337C12.4696 2.13337 12.2317 2.3712 12.2317 2.66665V13.5511C12.7778 14.0255 13.4585 14.4281 14.365 14.6729V2.66665C14.365 2.3712 14.1272 2.13337 13.8317 2.13337H12.765ZM19.165 2.13337C18.8696 2.13337 18.6317 2.3712 18.6317 2.66665V14.6729C19.5385 14.4277 20.2191 14.024 20.765 13.549V2.66665C20.765 2.3712 20.5272 2.13337 20.2317 2.13337H19.165ZM6.36502 4.26667C6.06956 4.26667 5.83169 4.50454 5.83169 4.80001V8.5323H7.96502V4.80001C7.96502 4.50454 7.72716 4.26667 7.43169 4.26667H6.36502ZM15.965 4.26667C15.6696 4.26667 15.4317 4.50454 15.4317 4.80001V14.875C15.7626 14.9125 16.1169 14.9333 16.4973 14.9333C16.8789 14.9333 17.2332 14.9127 17.565 14.875V4.80001C17.565 4.50454 17.3272 4.26667 17.0317 4.26667H15.965ZM25.565 4.26667C25.2696 4.26667 25.0317 4.50454 25.0317 4.80001V8.5323H27.165V4.80001C27.165 4.50454 26.9272 4.26667 26.6317 4.26667H25.565ZM3.69836 9.59898C3.37725 9.60011 3.12991 9.88259 3.17127 10.201L5.8369 30.4646C5.93124 31.2584 6.55098 32 7.43065 32H25.565C26.4425 32 27.0618 31.2601 27.1588 30.4688L29.8286 10.201C29.8701 9.88093 29.6201 9.59759 29.2973 9.59898H24.4984C24.2374 9.60031 24.0157 9.79025 23.9744 10.0479C23.9744 10.0479 23.7222 11.5286 22.6629 13.0239C21.6037 14.5193 19.8009 16 16.4984 16C13.1958 16 11.3919 14.5193 10.3327 13.0239C9.27354 11.5286 9.02544 10.0479 9.02544 10.0479C8.98395 9.78906 8.76051 9.59878 8.49836 9.59898H3.69836ZM16.4984 19.7344C18.8485 19.7344 20.765 21.6478 20.765 23.9979C20.765 26.348 18.8485 28.2656 16.4984 28.2656C14.1482 28.2656 12.2296 26.348 12.2296 23.9979C12.2296 21.6478 14.1482 19.7344 16.4984 19.7344Z" fill="#FF7010"/>
</svg>
